<?xml version="1.0" encoding="UTF-8" standalone="no"?>
<!-- Created with Inkscape (http://www.inkscape.org/) -->

<svg
   width="33.866669mm"
   height="11.64167mm"
   viewBox="0 0 33.866669 11.64167"
   version="1.1"
   id="svg500"
   inkscape:version="1.2 (dc2aedaf03, 2022-05-15)"
   sodipodi:docname="clogo.svg"
   xmlns:inkscape="http://www.inkscape.org/namespaces/inkscape"
   xmlns:sodipodi="http://sodipodi.sourceforge.net/DTD/sodipodi-0.dtd"
   xmlns="http://www.w3.org/2000/svg"
   xmlns:svg="http://www.w3.org/2000/svg">
  <sodipodi:namedview
     id="namedview502"
     pagecolor="#ffffff"
     bordercolor="#000000"
     borderopacity="0.25"
     inkscape:showpageshadow="2"
     inkscape:pageopacity="0.0"
     inkscape:pagecheckerboard="0"
     inkscape:deskcolor="#d1d1d1"
     inkscape:document-units="mm"
     showgrid="false"
     inkscape:zoom="2.1770318"
     inkscape:cx="-252.40789"
     inkscape:cy="315.79695"
     inkscape:window-width="1920"
     inkscape:window-height="983"
     inkscape:window-x="3840"
     inkscape:window-y="0"
     inkscape:window-maximized="1"
     inkscape:current-layer="layer1" />
  <defs
     id="defs497" />
  <g
     inkscape:label="Layer 1"
     inkscape:groupmode="layer"
     id="layer1"
     transform="translate(131.40209,-57.429167)">
    <path
       fill-rule="evenodd"
       clip-rule="evenodd"
       d="m -116.44966,65.394713 -0.1911,-0.03712 c -0.40889,2.161116 -1.4413,3.318854 -2.7051,3.318854 -1.64259,0 -2.97294,-2.473563 -2.97294,-5.524765 0,-3.050831 1.08183,-5.489497 2.64787,-5.489497 1.44129,0 2.37543,1.702862 2.64287,4.183302 h 0.19201 v -4.218672 h -0.19201 v 0.197281 c 0,0.199204 -0.16907,0.437078 -0.44196,0.437078 -0.18325,0 -0.3782,-0.08063 -0.72128,-0.29496 -0.5356,-0.344255 -1.13157,-0.536038 -1.76046,-0.536038 -2.31648,0 -4.09691,2.60405 -4.09691,5.816333 0,3.21175 1.78043,5.815356 4.09691,5.815356 2.19244,0 3.14603,-1.742175 3.5021,-3.667152 z m 14.74759,3.479562 c -1.93384,0 -2.43787,-2.953253 -2.43787,-5.628773 0,-2.676419 0.60669,-5.619238 2.43787,-5.619238 1.831179,0 2.43734,2.942819 2.43734,5.619238 0,2.67552 -0.503767,5.628773 -2.43734,5.628773 z m 0,-11.445108 c -2.45269,0 -4.1669,2.393206 -4.1669,5.821468 0,3.53613 1.63563,5.820199 4.1669,5.820199 2.531267,0 4.166656,-2.284069 4.166656,-5.820199 0,-3.428262 -1.713971,-5.821468 -4.166656,-5.821468 z m -8.0777,5.522383 c -0.35529,0.495909 -0.82971,0.807376 -1.33589,0.807376 -0.56083,0 -0.91934,-0.307789 -0.91934,-0.704823 0,-0.420873 0.37454,-0.72435 0.95501,-0.72435 0.4862,0 0.93869,0.228891 1.30022,0.621797 z m -3.07031,-5.126722 h 1.32802 c 1.32795,0 2.36832,1.363096 2.36832,3.044346 0,0.547211 -0.11354,1.067223 -0.3057,1.511167 -0.46141,-0.200501 -0.97153,-0.311838 -1.50088,-0.311838 -0.796,0 -1.26767,0.44159 -1.26767,0.9856 0,0.542528 0.46561,0.968242 1.15853,0.968242 0.61129,0 1.19425,-0.177376 1.6982,-0.481779 0.25604,0.493712 0.4096,1.109186 0.4096,1.796044 0,1.844067 -1.11035,3.339465 -2.5604,3.339465 h -1.32802 z m -0.19441,11.051378 h 2.13225 c 2.10931,0 3.58314,-1.500902 3.58314,-3.352218 0,-1.064286 -0.49741,-1.992683 -1.26658,-2.618872 0.54345,-0.594334 0.88251,-1.374563 0.88251,-2.213531 0,-1.692235 -1.34321,-3.064404 -3.28575,-3.064404 h -4.10583 v 0.197647 h 0.62119 v 10.851274 h -0.62119 v 0.198173 h 2.06026 z m -11.82336,-2.813791 h -0.19254 v 0.196639 c 0,1.267909 -0.89133,2.417868 -2.84628,2.417868 h -1.24153 V 57.824828 h 0.62058 v -0.197647 h -2.87446 v 0.197647 h 0.62032 v 10.852094 h -0.62032 v 0.197353 h 6.53423 z"
       fill="#222222"
       id="path200"
       style="fill:#ffffff;stroke-width:0.264583"
       inkscape:export-filename="clogo.svg"
       inkscape:export-xdpi="96"
       inkscape:export-ydpi="96" />
  </g>
</svg>
